<svg xmlns="http://www.w3.org/2000/svg" width="167" height="55" viewBox="0 0 185 55">
  <style type="text/css">
    .st0{fill-rule:evenodd;clip-rule:evenodd;fill:#68B42E;}
    .st1{fill:#68B42E;}
    .st2{fill-rule:evenodd;clip-rule:evenodd;fill:#444444;}
    .st3{fill:#444444;}
  </style>
  <title>logo_svlfg_feb19</title>
  <path class="st0" d="M27.5,0C12.5,0,0.2,12.1,0.2,27.2c0,13.1,9.3,24.4,22.1,26.8v-1C9.4,50.2,1.2,37.3,4.1,24.4S19.7,3.3,32.7,6.1
	S53.8,21.8,51,34.7C49,43.8,41.9,51,32.7,53v1c14.8-2.8,24.5-17.1,21.7-31.9C51.9,9.3,40.6,0,27.5,0"/>
  <path class="st0" d="M27.5,7.7c-12.2,0-22,9.8-22.1,21.9c0,10.2,7,19.1,17,21.5V50C12.5,47.1,6.8,36.8,9.7,26.8
	c2.3-7.9,9.6-13.4,17.8-13.5c10.3,0.1,18.6,8.5,18.6,18.8C46,40.4,40.5,47.7,32.6,50v1.2c11.8-2.7,19.2-14.5,16.5-26.4
	C46.8,14.7,37.8,7.6,27.5,7.7"/>
  <path class="st0" d="M27.5,15.4c-9.3,0.1-16.7,7.8-16.6,17.1C11,39.7,15.6,46,22.4,48.2V47c-6.9-2.7-10.3-10.6-7.6-17.5
	s10.6-10.3,17.5-7.6c5.2,2,8.6,7,8.5,12.6c0,5.5-3.3,10.4-8.3,12.5v1.2c8.8-3,13.6-12.5,10.6-21.3C40.9,20.2,34.6,15.6,27.5,15.4"/>
  <path class="st0" d="M23.2,35.7h-3.3v3.4c0,1.8,1.5,3.4,3.3,3.4h3.3v-3.4C26.6,37.2,25.1,35.7,23.2,35.7L23.2,35.7"/>
  <path class="st0" d="M28.5,39.1v3.4h3.3c1.8,0,3.3-1.5,3.3-3.4v-3.4h-3.3C29.9,35.7,28.4,37.2,28.5,39.1
	C28.4,39.1,28.4,39.1,28.5,39.1"/>
  <path class="st0" d="M25.1,34.2l2.4,2.4l2.4-2.4c1.3-1.3,1.3-3.5,0-4.8L27.5,27l-2.4,2.4C23.9,30.8,23.9,32.9,25.1,34.2"/>
  <rect x="27" y="43.4" class="st1" width="1" height="11.6"/>
  <path class="st2" d="M180,49c-1,0.9-2.3,1.7-3.6,2.2c-1.9,0.7-4,1-6,0.9c-3.1,0.1-6.4-1.1-8.5-3.4c-2.2-2.4-3.3-5.6-3.1-8.8V39
	c-0.2-3.3,0.9-6.5,3.1-9.1c2.1-2.3,5.3-3.6,8.5-3.5c1.8,0,3.7,0.3,5.4,0.9c1.5,0.6,2.8,1.4,4.1,2.5v5h-3.7l-0.7-3.3
	c-0.6-0.5-1.2-0.8-1.9-0.9c-0.9-0.3-1.7-0.4-2.6-0.4c-2-0.1-4.2,0.9-5.4,2.5c-1.3,1.8-1.9,4.1-1.8,6.4V40c-0.1,2.2,0.5,4.4,1.8,6.1
	c1.2,1.5,3.4,2.4,5.4,2.3c0.9,0,1.6-0.1,2.5-0.3c0.5-0.1,1.1-0.3,1.5-0.6v-4.2l-3.7-0.3v-3.5h8.6L180,49z"/>
  <polygon class="st2" points="135.8,48.8 138.5,48.2 138.5,30.4 135.8,29.9 135.8,26.9 155.6,26.9 155.6,33.7 151.6,33.7 151.5,30.7
	143.5,30.7 143.5,37.6 152,37.6 152,41.4 143.5,41.4 143.5,48.2 146.2,48.8 146.2,51.7 135.8,51.7 "/>
  <polygon class="st2" points="113.1,51.7 113.1,48.8 115.7,48.2 115.7,30.4 113.1,29.9 113.1,26.9 123.3,26.9 123.3,29.9 120.7,30.4
	120.7,47.9 127.3,47.9 127.6,44.8 131.4,44.8 131.4,51.7 "/>
  <polygon class="st2" points="94,29.9 92.1,30.2 96.5,45.1 96.8,46.5 96.9,46.5 97.2,45.2 101.6,30.2 99.7,29.9 99.7,26.9
	108.8,26.9 108.8,29.9 106.8,30.1 99.5,51.7 94.3,51.7 86.9,30.1 84.8,29.9 84.8,26.9 94,26.9 "/>
  <path class="st3" d="M80.8,34.7H77l-0.7-3.3c-1.3-0.7-2.7-1-4.3-1c-2.4,0-4.2,1-4.2,3.1s2.2,2.8,5.1,3.8c5,1.4,8.6,3.5,8.6,8
	c0,4.6-4.4,6.8-9.5,6.8c-3.4,0.1-6.8-1.1-9.3-3.5v-5.2h3.9l0.6,3.5c1.4,0.9,3.1,1.5,4.9,1.4c2.4,0,4.5-0.9,4.5-3s-2-3-4.8-4
	c-5.3-1.5-8.8-3.4-8.8-7.9s4.1-6.8,8.9-6.9c3.3-0.1,6.3,1,8.9,3.2L80.8,34.7L80.8,34.7z"/>
</svg>
